<?xml version="1.0" encoding="UTF-8"?>
<svg width="512" height="512" viewBox="0 0 512 512" fill="none" xmlns="http://www.w3.org/2000/svg">
  <rect width="512" height="512" rx="100" fill="#4F46E5"/>
  <path d="M256 120C176.5 120 112 184.5 112 264C112 343.5 176.5 408 256 408C335.5 408 400 343.5 400 264C400 184.5 335.5 120 256 120ZM256 380C192.1 380 140 327.9 140 264C140 200.1 192.1 148 256 148C319.9 148 372 200.1 372 264C372 327.9 319.9 380 256 380Z" fill="white"/>
  <path d="M256 176C207.4 176 168 215.4 168 264C168 312.6 207.4 352 256 352C304.6 352 344 312.6 344 264C344 215.4 304.6 176 256 176ZM256 324C222.9 324 196 297.1 196 264C196 230.9 222.9 204 256 204C289.1 204 316 230.9 316 264C316 297.1 289.1 324 256 324Z" fill="white"/>
  <circle cx="256" cy="264" r="32" fill="white"/>
</svg>
